<svg xmlns="http://www.w3.org/2000/svg" xmlns:xlink="http://www.w3.org/1999/xlink" width="1080" zoomAndPan="magnify" viewBox="0 0 810 809.999993" height="1080" preserveAspectRatio="xMidYMid meet" version="1.0"><defs><g/></defs><g fill="#38b6ff" fill-opacity="1"><g transform="translate(161.367183, 505.369917)"><g><path d="M 190.75 -160.890625 C 191.101562 -154.566406 190.644531 -148.375 189.375 -142.3125 C 188.113281 -136.25 186.21875 -130.328125 183.6875 -124.546875 C 181.332031 -119.117188 178.484375 -113.78125 175.140625 -108.53125 C 171.796875 -103.28125 168.222656 -98.394531 164.421875 -93.875 C 164.242188 -93.695312 164.019531 -93.378906 163.75 -92.921875 C 163.476562 -92.472656 163.34375 -92.160156 163.34375 -91.984375 L 161.71875 -90.359375 L 161.984375 -90.890625 L 160.359375 -88.71875 C 160.171875 -88.539062 159.941406 -88.40625 159.671875 -88.3125 C 159.398438 -88.226562 159.265625 -88.1875 159.265625 -88.1875 C 159.265625 -88.1875 158.628906 -87.503906 157.359375 -86.140625 C 156.097656 -84.785156 155.195312 -83.835938 154.65625 -83.296875 L 152.484375 -81.125 C 148.328125 -76.96875 143.894531 -73.078125 139.1875 -69.453125 L 139.1875 -69.734375 C 134.664062 -65.929688 130.007812 -62.492188 125.21875 -59.421875 C 120.425781 -56.347656 115.585938 -53.546875 110.703125 -51.015625 C 117.578125 -47.035156 123.726562 -41.785156 129.15625 -35.265625 C 130.0625 -34.367188 130.875 -33.0625 131.59375 -31.34375 C 132.3125 -29.625 133.035156 -28.039062 133.765625 -26.59375 C 134.128906 -25.863281 134.398438 -25.046875 134.578125 -24.140625 C 134.753906 -23.242188 134.9375 -21.890625 135.125 -20.078125 C 135.488281 -14.472656 134.3125 -9.5 131.59375 -5.15625 C 128.695312 -0.269531 126.164062 3.253906 124 5.421875 L 117.75 10.859375 L 118.03125 10.859375 C 114.226562 14.296875 109.476562 17.6875 103.78125 21.03125 C 98.082031 24.375 92.113281 27.175781 85.875 29.4375 C 79.632812 31.695312 73.800781 32.828125 68.375 32.828125 C 66.5625 32.648438 64.660156 32.289062 62.671875 31.75 C 60.679688 31.207031 58.960938 30.210938 57.515625 28.765625 L 57.796875 28.765625 C 54.535156 26.046875 53.085938 22.695312 53.453125 18.71875 C 53.453125 15.28125 54.445312 11.84375 56.4375 8.40625 L 56.984375 7.59375 C 56.984375 7.226562 57.117188 6.957031 57.390625 6.78125 C 57.660156 6.601562 57.882812 6.421875 58.0625 6.234375 L 57.515625 7.046875 C 57.703125 6.867188 57.835938 6.78125 57.921875 6.78125 C 58.015625 6.78125 58.0625 6.78125 58.0625 6.78125 C 58.0625 6.238281 58.242188 5.785156 58.609375 5.421875 C 59.328125 4.703125 59.78125 4.160156 59.96875 3.796875 C 60.507812 3.429688 60.957031 2.976562 61.3125 2.4375 C 63.3125 0.445312 65.257812 -1.269531 67.15625 -2.71875 C 69.050781 -4.164062 70.8125 -5.429688 72.4375 -6.515625 L 74.609375 -7.046875 L 89.53125 -13.5625 L 89.265625 -13.296875 C 89.441406 -13.472656 89.804688 -13.5625 90.359375 -13.5625 C 91.617188 -13.5625 92.703125 -12.660156 93.609375 -10.859375 C 94.148438 -9.410156 93.335938 -8.320312 91.171875 -7.59375 C 91.171875 -7.59375 91.035156 -7.546875 90.765625 -7.453125 C 90.492188 -7.367188 89.992188 -7.234375 89.265625 -7.046875 L 83.03125 -5.15625 C 82.84375 -4.976562 82.613281 -4.84375 82.34375 -4.75 C 82.070312 -4.65625 81.9375 -4.609375 81.9375 -4.609375 L 74.890625 -1.359375 L 75.15625 -1.359375 C 73.34375 -0.273438 71.53125 0.894531 69.71875 2.15625 C 67.914062 3.425781 66.289062 4.785156 64.84375 6.234375 C 65.03125 6.054688 64.625 6.597656 63.625 7.859375 C 62.632812 9.128906 61.59375 10.488281 60.5 11.9375 C 60.144531 12.664062 59.691406 13.796875 59.140625 15.328125 C 58.597656 16.867188 58.328125 18.09375 58.328125 19 C 57.972656 21.164062 58.789062 23.0625 60.78125 24.6875 C 61.5 25.414062 62.625 26.09375 64.15625 26.71875 C 65.695312 27.351562 67.101562 27.671875 68.375 27.671875 C 73.070312 26.765625 78.179688 24.816406 83.703125 21.828125 C 89.222656 18.847656 94.421875 15.140625 99.296875 10.703125 C 104.179688 6.273438 108.207031 1.53125 111.375 -3.53125 C 114.539062 -8.59375 116.125 -13.65625 116.125 -18.71875 C 116.125 -23.425781 114.269531 -27.859375 110.5625 -32.015625 C 106.851562 -36.171875 100.75 -39.695312 92.25 -42.59375 L 77.59375 -37.4375 C 74.707031 -36.71875 71.722656 -35.953125 68.640625 -35.140625 C 65.566406 -34.328125 62.40625 -33.738281 59.15625 -33.375 L 59.15625 -32.5625 L 59.96875 -29.296875 L 59.96875 -27.40625 C 59.96875 -27.226562 60.007812 -27.046875 60.09375 -26.859375 C 60.1875 -26.679688 60.234375 -26.5 60.234375 -26.3125 L 59.96875 -26.59375 C 60.144531 -26.40625 60.273438 -26.175781 60.359375 -25.90625 C 60.453125 -25.632812 60.59375 -25.320312 60.78125 -24.96875 L 61.859375 -20.890625 C 62.398438 -19.265625 62.941406 -17.59375 63.484375 -15.875 C 64.035156 -14.15625 64.398438 -13.113281 64.578125 -12.75 C 65.296875 -9.851562 64.882812 -7.179688 63.34375 -4.734375 C 61.8125 -2.296875 59.507812 -0.628906 56.4375 0.265625 C 55.894531 0.453125 55.394531 0.585938 54.9375 0.671875 C 54.488281 0.765625 53.992188 0.8125 53.453125 0.8125 C 51.097656 0.8125 48.925781 0.0859375 46.9375 -1.359375 C 44.945312 -2.804688 43.59375 -4.703125 42.875 -7.046875 C 42.875 -7.046875 42.691406 -7.769531 42.328125 -9.21875 C 41.960938 -10.664062 41.507812 -12.65625 40.96875 -15.1875 C 40.96875 -15.914062 40.785156 -16.640625 40.421875 -17.359375 L 39.890625 -19.8125 L 39.078125 -21.703125 C 39.078125 -22.785156 38.894531 -23.691406 38.53125 -24.421875 L 37.171875 -32.015625 L 35.265625 -32.015625 C 34.003906 -32.015625 32.96875 -32.054688 32.15625 -32.140625 C 31.34375 -32.234375 30.570312 -32.375 29.84375 -32.5625 C 28.757812 -32.925781 28.398438 -33.109375 28.765625 -33.109375 L 27.671875 -33.640625 C 27.671875 -33.640625 27.535156 -33.6875 27.265625 -33.78125 C 26.992188 -33.875 26.769531 -33.921875 26.59375 -33.921875 L 25.5 -34.734375 C 25.144531 -35.085938 24.875 -35.535156 24.6875 -36.078125 C 24.507812 -36.628906 24.421875 -36.90625 24.421875 -36.90625 L 24.421875 -39.34375 L 25.234375 -42.0625 C 25.773438 -42.957031 26.363281 -43.722656 27 -44.359375 C 27.632812 -44.992188 28.222656 -45.582031 28.765625 -46.125 C 29.671875 -46.851562 30.570312 -47.441406 31.46875 -47.890625 C 32.375 -48.335938 33.28125 -48.832031 34.1875 -49.375 L 34.1875 -50.203125 L 32.828125 -66.203125 C 32.285156 -71.628906 32.015625 -77.238281 32.015625 -83.03125 L 32.015625 -88.453125 C 32.015625 -90.441406 31.96875 -92.429688 31.875 -94.421875 C 31.789062 -96.410156 31.835938 -98.3125 32.015625 -100.125 C 32.015625 -101.382812 32.015625 -102.875 32.015625 -104.59375 C 32.015625 -106.3125 32.101562 -107.804688 32.28125 -109.078125 C 32.28125 -109.984375 32.28125 -111.429688 32.28125 -113.421875 C 32.28125 -115.410156 32.375 -116.765625 32.5625 -117.484375 C 32.925781 -122.734375 33.242188 -128.070312 33.515625 -133.5 C 33.785156 -138.925781 34.28125 -144.257812 35 -149.5 L 36.625 -163.34375 C 37.164062 -167.5 37.707031 -171.335938 38.25 -174.859375 C 38.800781 -178.390625 39.253906 -181.332031 39.609375 -183.6875 L 40.421875 -187.765625 C 40.421875 -188.117188 40.46875 -188.476562 40.5625 -188.84375 C 40.65625 -189.207031 40.703125 -189.476562 40.703125 -189.65625 C 40.878906 -190.019531 41.007812 -190.472656 41.09375 -191.015625 C 41.1875 -191.554688 41.234375 -191.828125 41.234375 -191.828125 C 41.960938 -194.722656 43.546875 -196.894531 45.984375 -198.34375 C 48.429688 -199.789062 51.007812 -200.515625 53.71875 -200.515625 C 56.789062 -199.972656 59.1875 -198.476562 60.90625 -196.03125 C 62.625 -193.59375 63.125 -190.835938 62.40625 -187.765625 C 62.40625 -187.765625 62.40625 -187.535156 62.40625 -187.078125 C 62.40625 -186.628906 62.316406 -186.132812 62.140625 -185.59375 C 62.140625 -185.40625 62.09375 -185.175781 62 -184.90625 C 61.90625 -184.632812 61.859375 -184.410156 61.859375 -184.234375 L 61.046875 -180.4375 L 58.328125 -160.359375 C 58.328125 -159.628906 58.28125 -158.992188 58.1875 -158.453125 C 58.101562 -157.910156 57.972656 -157.367188 57.796875 -156.828125 L 57.796875 -157.09375 C 57.066406 -153.113281 56.566406 -149 56.296875 -144.75 C 56.023438 -140.5 55.707031 -136.296875 55.34375 -132.140625 C 55.164062 -129.609375 55.03125 -126.984375 54.9375 -124.265625 C 54.851562 -121.554688 54.71875 -118.753906 54.53125 -115.859375 C 54.351562 -114.585938 54.265625 -113.273438 54.265625 -111.921875 C 54.265625 -110.566406 54.265625 -109.164062 54.265625 -107.71875 C 54.085938 -106.445312 54 -105.132812 54 -103.78125 C 54 -102.425781 54 -101.113281 54 -99.84375 C 53.8125 -98.039062 53.765625 -96.234375 53.859375 -94.421875 C 53.953125 -92.609375 54 -90.707031 54 -88.71875 L 54 -83.296875 C 54 -80.765625 54.085938 -78.140625 54.265625 -75.421875 C 54.441406 -72.710938 54.625 -70.09375 54.8125 -67.5625 L 55.078125 -59.6875 C 57.242188 -60.414062 59.640625 -60.914062 62.265625 -61.1875 C 64.890625 -61.457031 67.285156 -61.59375 69.453125 -61.59375 C 72.535156 -61.59375 75.519531 -61.5 78.40625 -61.3125 C 81.300781 -61.132812 84.289062 -60.863281 87.375 -60.5 C 87.550781 -60.320312 87.820312 -60.234375 88.1875 -60.234375 L 93.0625 -59.15625 C 93.789062 -58.789062 94.515625 -58.609375 95.234375 -58.609375 C 95.773438 -58.421875 96.585938 -58.101562 97.671875 -57.65625 C 98.765625 -57.207031 99.941406 -56.710938 101.203125 -56.171875 L 102.015625 -55.890625 C 102.742188 -56.253906 103.46875 -56.660156 104.1875 -57.109375 C 104.914062 -57.566406 105.28125 -57.796875 105.28125 -57.796875 C 112.695312 -63.222656 119.929688 -69.460938 126.984375 -76.515625 C 134.035156 -83.566406 140.003906 -90.984375 144.890625 -98.765625 L 147.328125 -102.015625 L 147.328125 -101.75 L 148.421875 -103.375 C 148.773438 -104.28125 149.132812 -104.914062 149.5 -105.28125 C 152.03125 -109.800781 154.515625 -114.320312 156.953125 -118.84375 C 159.398438 -123.363281 161.53125 -127.882812 163.34375 -132.40625 L 164.15625 -135.9375 C 164.15625 -136.113281 164.242188 -136.335938 164.421875 -136.609375 C 164.609375 -136.878906 164.703125 -137.109375 164.703125 -137.296875 L 165.234375 -138.921875 C 165.234375 -139.640625 165.328125 -140.363281 165.515625 -141.09375 C 165.515625 -142 165.691406 -142.628906 166.046875 -142.984375 C 166.046875 -143.347656 166.132812 -143.9375 166.3125 -144.75 C 166.5 -145.5625 166.59375 -146.0625 166.59375 -146.25 C 166.769531 -146.425781 166.90625 -146.96875 167 -147.875 C 167.09375 -148.78125 167.140625 -149.320312 167.140625 -149.5 L 167.140625 -151.125 C 167.140625 -151.488281 167.179688 -151.847656 167.265625 -152.203125 C 167.359375 -152.566406 167.40625 -152.84375 167.40625 -153.03125 L 167.40625 -156.28125 L 167.140625 -159.8125 C 166.597656 -169.21875 164.109375 -177.398438 159.671875 -184.359375 C 155.242188 -191.328125 149.632812 -197.429688 142.84375 -202.671875 C 136.0625 -207.921875 128.875 -212.535156 121.28125 -216.515625 L 121.015625 -216.515625 C 120.285156 -216.515625 119.5625 -216.878906 118.84375 -217.609375 C 118.664062 -217.785156 118.394531 -217.960938 118.03125 -218.140625 C 117.664062 -218.328125 117.300781 -218.507812 116.9375 -218.6875 C 116.582031 -218.875 116.222656 -218.96875 115.859375 -218.96875 L 113.421875 -220.3125 C 112.691406 -220.3125 111.875 -220.582031 110.96875 -221.125 C 110.789062 -221.125 110.566406 -221.171875 110.296875 -221.265625 C 110.023438 -221.359375 109.890625 -221.40625 109.890625 -221.40625 C 103.734375 -223.570312 97.222656 -224.65625 90.359375 -224.65625 C 83.117188 -224.65625 75.519531 -223.34375 67.5625 -220.71875 C 59.601562 -218.101562 52.003906 -214.664062 44.765625 -210.40625 C 37.535156 -206.15625 31.207031 -201.59375 25.78125 -196.71875 C 22.34375 -194.1875 18.8125 -191.019531 15.1875 -187.21875 C 11.570312 -183.414062 8.679688 -179.707031 6.515625 -176.09375 C 6.148438 -175.550781 5.875 -175.1875 5.6875 -175 C 5.507812 -174.820312 5.421875 -174.734375 5.421875 -174.734375 C 4.878906 -173.648438 3.882812 -173.109375 2.4375 -173.109375 C 1.894531 -173.109375 1.535156 -173.195312 1.359375 -173.375 C -0.0859375 -174.457031 -0.359375 -175.816406 0.546875 -177.453125 C 0.546875 -177.453125 0.5 -177.492188 0.40625 -177.578125 C 0.3125 -177.671875 0.359375 -177.988281 0.546875 -178.53125 L 5.703125 -184.234375 C 9.859375 -189.117188 15.191406 -194.273438 21.703125 -199.703125 C 28.210938 -205.128906 35.128906 -210.191406 42.453125 -214.890625 C 49.785156 -219.597656 56.523438 -222.945312 62.671875 -224.9375 L 73.796875 -229.546875 C 77.421875 -230.804688 81.265625 -232.023438 85.328125 -233.203125 C 89.398438 -234.378906 93.695312 -235.332031 98.21875 -236.0625 C 102.925781 -236.601562 107.8125 -236.875 112.875 -236.875 C 113.59375 -236.6875 114.222656 -236.59375 114.765625 -236.59375 C 115.304688 -236.59375 115.851562 -236.59375 116.40625 -236.59375 L 123.71875 -235.515625 C 124.445312 -235.328125 125.171875 -235.144531 125.890625 -234.96875 C 126.617188 -234.789062 127.34375 -234.519531 128.0625 -234.15625 L 127.796875 -234.421875 C 135.753906 -232.429688 143.171875 -229.3125 150.046875 -225.0625 C 156.921875 -220.8125 163.34375 -215.882812 169.3125 -210.28125 C 175.644531 -203.40625 180.707031 -195.851562 184.5 -187.625 C 188.300781 -179.394531 190.382812 -170.484375 190.75 -160.890625 Z M 58.0625 -37.71875 C 61.132812 -38.4375 64.070312 -39.203125 66.875 -40.015625 C 69.6875 -40.828125 72.71875 -41.78125 75.96875 -42.875 L 79.5 -44.21875 C 75.882812 -44.21875 72.128906 -44.265625 68.234375 -44.359375 C 64.347656 -44.453125 60.597656 -44.679688 56.984375 -45.046875 L 57.515625 -39.890625 Z M 29.578125 -37.984375 C 29.941406 -37.984375 30.753906 -37.710938 32.015625 -37.171875 L 31.46875 -37.4375 L 35.546875 -36.625 C 35.546875 -36.625 35.585938 -36.578125 35.671875 -36.484375 C 35.765625 -36.398438 35.90625 -36.359375 36.09375 -36.359375 L 35.546875 -40.703125 C 35.359375 -41.609375 35.265625 -41.96875 35.265625 -41.78125 C 35.265625 -41.601562 35.265625 -41.875 35.265625 -42.59375 L 32.28125 -41.234375 C 31.382812 -40.691406 30.664062 -39.972656 30.125 -39.078125 L 30.125 -39.34375 L 29.578125 -38.25 Z M 29.578125 -37.71875 C 29.578125 -37.53125 29.617188 -37.390625 29.703125 -37.296875 C 29.796875 -37.210938 29.84375 -37.171875 29.84375 -37.171875 L 29.84375 -37.71875 Z M 29.578125 -37.71875 "/></g></g></g><g fill="#38b6ff" fill-opacity="1"><g transform="translate(368.666782, 505.369917)"><g><path d="M 105.28125 -253.421875 C 114.5 -253.421875 121.957031 -250.976562 127.65625 -246.09375 C 133.351562 -241.207031 137.515625 -235.007812 140.140625 -227.5 C 142.765625 -220 144.078125 -212.085938 144.078125 -203.765625 C 144.078125 -195.628906 142.988281 -187.488281 140.8125 -179.34375 C 140.269531 -176.8125 139.550781 -174.28125 138.65625 -171.75 L 135.671875 -164.15625 C 130.597656 -153.300781 123.71875 -142.039062 115.03125 -130.375 C 106.351562 -118.707031 96.722656 -107.21875 86.140625 -95.90625 C 75.566406 -84.601562 64.851562 -74.113281 54 -64.4375 C 43.144531 -54.757812 33.015625 -46.578125 23.609375 -39.890625 C 23.242188 -35.367188 22.878906 -30.84375 22.515625 -26.3125 C 22.160156 -21.789062 21.984375 -17.363281 21.984375 -13.03125 C 21.984375 -5.789062 22.34375 1.304688 23.0625 8.265625 C 23.78125 15.234375 25.046875 22.15625 26.859375 29.03125 C 27.585938 30.84375 28.398438 32.742188 29.296875 34.734375 C 30.203125 36.722656 31.019531 38.257812 31.75 39.34375 C 33.195312 40.789062 34.78125 41.960938 36.5 42.859375 C 38.21875 43.765625 39.976562 44.398438 41.78125 44.765625 C 43.050781 44.953125 44.273438 45.085938 45.453125 45.171875 C 46.628906 45.265625 47.757812 45.3125 48.84375 45.3125 C 54.625 45.3125 59.910156 43.910156 64.703125 41.109375 C 69.503906 38.304688 73.9375 34.820312 78 30.65625 C 82.070312 26.5 85.738281 22.429688 89 18.453125 L 90.625 16.28125 L 90.625 16.546875 L 102.5625 1.625 L 102.296875 1.625 L 113.953125 -12.75 C 117.210938 -16.914062 120.195312 -20.578125 122.90625 -23.734375 C 125.625 -26.898438 127.882812 -29.570312 129.6875 -31.75 L 135.125 -37.71875 C 135.664062 -38.4375 136.390625 -38.796875 137.296875 -38.796875 C 138.015625 -38.796875 138.738281 -38.613281 139.46875 -38.25 C 140.007812 -37.707031 140.28125 -36.984375 140.28125 -36.078125 C 140.28125 -35.179688 140.007812 -34.460938 139.46875 -33.921875 C 139.46875 -33.921875 139.015625 -33.421875 138.109375 -32.421875 C 137.203125 -31.429688 135.753906 -29.847656 133.765625 -27.671875 L 124.546875 -17.09375 C 123.816406 -16.007812 122.816406 -14.832031 121.546875 -13.5625 C 120.285156 -12.300781 119.203125 -11.035156 118.296875 -9.765625 C 116.484375 -7.410156 114.492188 -5.054688 112.328125 -2.703125 C 110.160156 -0.359375 108.171875 2.078125 106.359375 4.609375 L 94.421875 19.53125 C 89.535156 25.863281 84.695312 31.515625 79.90625 36.484375 C 75.113281 41.460938 69.6875 45.351562 63.625 48.15625 C 57.5625 50.957031 50.097656 52.359375 41.234375 52.359375 L 37.71875 52.359375 C 37.53125 52.359375 36.800781 52.3125 35.53125 52.21875 C 34.269531 52.132812 33.550781 52.003906 33.375 51.828125 C 32.101562 51.460938 30.789062 51.050781 29.4375 50.59375 C 28.082031 50.144531 26.679688 49.5625 25.234375 48.84375 C 19.628906 45.945312 15.109375 41.875 11.671875 36.625 C 7.691406 31.195312 4.796875 24.957031 2.984375 17.90625 C 1.171875 10.851562 0.0390625 3.664062 -0.40625 -3.65625 C -0.851562 -10.988281 -1.078125 -17.910156 -1.078125 -24.421875 C -1.078125 -39.796875 -0.128906 -55.210938 1.765625 -70.671875 C 3.660156 -86.140625 6.328125 -101.289062 9.765625 -116.125 C 10.492188 -119.195312 11.171875 -122.222656 11.796875 -125.203125 C 12.429688 -128.191406 13.113281 -131.132812 13.84375 -134.03125 L 18.71875 -151.40625 C 21.070312 -159.539062 24.007812 -168.265625 27.53125 -177.578125 C 31.0625 -186.898438 35.269531 -196.035156 40.15625 -204.984375 C 45.039062 -213.941406 50.644531 -222.035156 56.96875 -229.265625 C 63.300781 -236.503906 70.445312 -242.335938 78.40625 -246.765625 C 86.375 -251.203125 95.332031 -253.421875 105.28125 -253.421875 Z M 138.109375 -196.171875 C 138.472656 -201.234375 138.425781 -206.382812 137.96875 -211.625 C 137.519531 -216.875 136.300781 -222.035156 134.3125 -227.109375 L 134.578125 -227.109375 C 132.222656 -231.804688 129.238281 -236.050781 125.625 -239.84375 C 122.007812 -243.644531 117.488281 -245.910156 112.0625 -246.640625 C 111.519531 -246.816406 110.972656 -246.90625 110.421875 -246.90625 C 109.878906 -246.90625 109.335938 -246.90625 108.796875 -246.90625 C 104.097656 -246.90625 99.53125 -245.863281 95.09375 -243.78125 C 90.664062 -241.707031 86.550781 -239.3125 82.75 -236.59375 C 76.425781 -230.8125 70.726562 -223.082031 65.65625 -213.40625 C 60.59375 -203.726562 56.070312 -193.097656 52.09375 -181.515625 C 48.113281 -169.941406 44.628906 -158.09375 41.640625 -145.96875 C 38.660156 -133.851562 36.128906 -122.273438 34.046875 -111.234375 C 31.972656 -100.203125 30.210938 -90.53125 28.765625 -82.21875 L 27.953125 -77.875 C 27.765625 -76.601562 27.582031 -75.195312 27.40625 -73.65625 C 27.226562 -72.125 27.046875 -70.722656 26.859375 -69.453125 L 25.78125 -61.046875 C 24.875 -55.984375 24.328125 -51.375 24.140625 -47.21875 C 26.140625 -48.65625 28.359375 -50.28125 30.796875 -52.09375 C 33.234375 -53.90625 35.898438 -55.984375 38.796875 -58.328125 C 46.398438 -64.304688 54.765625 -71.722656 63.890625 -80.578125 C 73.023438 -89.441406 82.070312 -98.9375 91.03125 -109.0625 C 99.988281 -119.195312 108.035156 -129.285156 115.171875 -139.328125 C 122.316406 -149.367188 127.609375 -158.457031 131.046875 -166.59375 C 131.773438 -167.863281 132.59375 -170.125 133.5 -173.375 L 135.671875 -180.4375 C 137.109375 -185.675781 137.921875 -190.921875 138.109375 -196.171875 Z M 138.109375 -196.171875 "/></g></g></g><g fill="#38b6ff" fill-opacity="1"><g transform="translate(503.248703, 505.369917)"><g><path d="M 87.375 -37.171875 C 87.726562 -36.453125 87.769531 -35.726562 87.5 -35 C 87.226562 -34.28125 86.734375 -33.828125 86.015625 -33.640625 C 86.015625 -33.640625 85.5625 -33.410156 84.65625 -32.953125 C 83.75 -32.503906 83.113281 -32.191406 82.75 -32.015625 L 73.53125 -28.765625 C 73.53125 -28.765625 73.484375 -28.71875 73.390625 -28.625 C 73.304688 -28.53125 73.171875 -28.484375 72.984375 -28.484375 C 69.910156 -27.585938 66.609375 -26.773438 63.078125 -26.046875 C 59.554688 -25.328125 56.164062 -24.96875 52.90625 -24.96875 C 53.09375 -22.070312 53.046875 -19.175781 52.765625 -16.28125 C 52.492188 -13.382812 52.085938 -10.582031 51.546875 -7.875 C 51.191406 -5.695312 50.601562 -3.519531 49.78125 -1.34375 C 48.96875 0.820312 48.113281 2.898438 47.21875 4.890625 C 45.945312 6.691406 44.628906 8.585938 43.265625 10.578125 C 41.910156 12.566406 40.332031 14.015625 38.53125 14.921875 C 37.445312 15.648438 36.453125 16.238281 35.546875 16.6875 C 34.640625 17.132812 33.644531 17.539062 32.5625 17.90625 L 25.78125 18.71875 L 24.140625 18.71875 L 21.703125 19 L 19 19 C 16.101562 19 13.566406 18.722656 11.390625 18.171875 C 10.128906 17.816406 8.910156 17.273438 7.734375 16.546875 C 6.554688 15.828125 5.515625 15.195312 4.609375 14.65625 C 2.253906 12.125 0.222656 9.585938 -1.484375 7.046875 C -3.203125 4.515625 -4.515625 1.625 -5.421875 -1.625 C -6.503906 -5.0625 -7.226562 -8.316406 -7.59375 -11.390625 C -7.957031 -14.472656 -8.050781 -17.28125 -7.875 -19.8125 C -7.507812 -22.34375 -7.054688 -24.738281 -6.515625 -27 C -5.972656 -29.257812 -5.25 -31.203125 -4.34375 -32.828125 L -3.796875 -34.1875 C -3.796875 -34.726562 -3.4375 -35.453125 -2.71875 -36.359375 C -2.53125 -36.535156 -2.4375 -36.671875 -2.4375 -36.765625 C -2.4375 -36.859375 -2.4375 -36.90625 -2.4375 -36.90625 C -0.09375 -39.25 2.796875 -40.601562 6.234375 -40.96875 C 3.523438 -43.320312 0.992188 -46.171875 -1.359375 -49.515625 C -3.710938 -52.859375 -5.066406 -56.34375 -5.421875 -59.96875 C -5.421875 -61.414062 -5.101562 -63.039062 -4.46875 -64.84375 C -3.84375 -66.65625 -2.988281 -68.191406 -1.90625 -69.453125 C 0.0820312 -71.441406 2.476562 -72.753906 5.28125 -73.390625 C 8.09375 -74.023438 10.945312 -74.34375 13.84375 -74.34375 C 18.363281 -74.164062 23.15625 -72.988281 28.21875 -70.8125 C 32.738281 -68.46875 36.628906 -65.484375 39.890625 -61.859375 C 42.960938 -58.066406 45.492188 -53.90625 47.484375 -49.375 C 49.472656 -44.851562 50.828125 -40.242188 51.546875 -35.546875 C 51.910156 -34.816406 52.09375 -34.046875 52.09375 -33.234375 C 52.09375 -32.421875 52.179688 -31.472656 52.359375 -30.390625 L 58.328125 -30.9375 C 61.046875 -31.289062 63.535156 -31.785156 65.796875 -32.421875 C 68.054688 -33.054688 70.179688 -33.644531 72.171875 -34.1875 L 76.25 -35.546875 C 76.789062 -35.722656 77.332031 -35.898438 77.875 -36.078125 C 78.414062 -36.265625 78.503906 -36.359375 78.140625 -36.359375 L 80.859375 -37.4375 L 80.578125 -37.171875 C 82.753906 -38.253906 83.929688 -38.796875 84.109375 -38.796875 C 84.296875 -38.796875 84.429688 -38.84375 84.515625 -38.9375 C 84.609375 -39.03125 84.742188 -39.078125 84.921875 -39.078125 C 86.003906 -39.078125 86.820312 -38.441406 87.375 -37.171875 Z M 39.34375 -25.5 C 35.363281 -25.863281 31.519531 -26.769531 27.8125 -28.21875 C 24.101562 -29.664062 20.53125 -31.296875 17.09375 -33.109375 C 17.632812 -30.929688 17.632812 -28.664062 17.09375 -26.3125 C 17.09375 -26.3125 17.046875 -26.222656 16.953125 -26.046875 C 16.867188 -25.867188 16.828125 -25.597656 16.828125 -25.234375 C 16.640625 -24.691406 16.546875 -23.875 16.546875 -22.78125 C 16.546875 -21.695312 16.546875 -20.4375 16.546875 -19 C 16.546875 -12.84375 17.453125 -7.144531 19.265625 -1.90625 L 19 -2.171875 C 19.351562 -1.441406 19.664062 -0.757812 19.9375 -0.125 C 20.207031 0.5 20.4375 0.992188 20.625 1.359375 L 20.34375 1.078125 L 21.984375 5.421875 L 21.984375 5.15625 C 22.335938 6.238281 22.785156 7.414062 23.328125 8.6875 C 23.515625 8.863281 23.695312 9.085938 23.875 9.359375 C 24.050781 9.628906 24.234375 9.765625 24.421875 9.765625 L 26.046875 11.390625 C 26.222656 11.578125 26.3125 11.578125 26.3125 11.390625 C 26.3125 11.210938 26.40625 11.210938 26.59375 11.390625 C 27.5 11.578125 28.3125 11.710938 29.03125 11.796875 C 29.757812 11.890625 30.484375 11.9375 31.203125 11.9375 C 33.734375 11.394531 35.992188 10.171875 37.984375 8.265625 C 39.972656 6.367188 41.601562 4.425781 42.875 2.4375 C 43.769531 0.988281 44.488281 -0.769531 45.03125 -2.84375 C 45.582031 -4.925781 46.128906 -6.960938 46.671875 -8.953125 L 46.671875 -8.6875 C 47.390625 -11.582031 47.882812 -14.296875 48.15625 -16.828125 C 48.425781 -19.359375 48.382812 -21.976562 48.03125 -24.6875 C 45.3125 -24.6875 42.414062 -24.957031 39.34375 -25.5 Z M 40.15625 -30.9375 C 41.425781 -30.75 42.691406 -30.566406 43.953125 -30.390625 C 45.222656 -30.210938 46.488281 -30.125 47.75 -30.125 L 46.9375 -34.453125 C 46.21875 -38.796875 45 -43.046875 43.28125 -47.203125 C 41.5625 -51.367188 39.164062 -55.078125 36.09375 -58.328125 C 34.101562 -61.046875 30.9375 -63.398438 26.59375 -65.390625 C 22.25 -67.378906 18.359375 -68.375 14.921875 -68.375 C 14.203125 -68.375 13.023438 -68.28125 11.390625 -68.09375 C 9.765625 -67.914062 8.769531 -67.648438 8.40625 -67.296875 C 7.6875 -66.929688 7.097656 -66.382812 6.640625 -65.65625 C 6.191406 -64.9375 5.785156 -64.304688 5.421875 -63.765625 L 5.421875 -64.03125 C 5.066406 -63.125 4.976562 -62.039062 5.15625 -60.78125 C 5.15625 -59.875 5.242188 -59.054688 5.421875 -58.328125 C 5.609375 -57.609375 5.789062 -56.890625 5.96875 -56.171875 L 7.59375 -52.90625 L 7.328125 -53.71875 L 12.484375 -46.390625 L 12.203125 -46.390625 C 15.640625 -42.234375 19.84375 -38.84375 24.8125 -36.21875 C 29.789062 -33.59375 34.90625 -31.832031 40.15625 -30.9375 Z M 40.15625 -30.9375 "/></g></g></g><g fill="#38b6ff" fill-opacity="1"><g transform="translate(589.26176, 505.369917)"><g><path d="M 144.34375 -37.171875 C 145.070312 -35.546875 144.710938 -34.28125 143.265625 -33.375 L 141.640625 -32.28125 C 140.910156 -32.101562 140.140625 -31.832031 139.328125 -31.46875 C 138.515625 -31.113281 137.835938 -30.753906 137.296875 -30.390625 C 131.328125 -27.671875 124.632812 -23.820312 117.21875 -18.84375 C 109.800781 -13.875 103.378906 -9.492188 97.953125 -5.703125 C 99.398438 0.453125 100.347656 6.875 100.796875 13.5625 C 101.253906 20.257812 101.484375 26.773438 101.484375 33.109375 C 101.484375 35.992188 101.390625 39.785156 101.203125 44.484375 C 101.023438 49.191406 100.707031 53.941406 100.25 58.734375 C 99.800781 63.535156 99.210938 67.382812 98.484375 70.28125 L 97.671875 75.96875 C 97.492188 76.15625 97.359375 76.5625 97.265625 77.1875 C 97.179688 77.820312 97.140625 78.226562 97.140625 78.40625 L 96.59375 81.9375 C 94.0625 92.613281 90.21875 104.054688 85.0625 116.265625 C 79.90625 128.472656 73.570312 140.273438 66.0625 151.671875 C 58.5625 163.066406 50.109375 172.878906 40.703125 181.109375 C 31.296875 189.335938 21.078125 194.8125 10.046875 197.53125 C 7.148438 198.070312 4.253906 198.34375 1.359375 198.34375 C -0.992188 198.34375 -3.4375 198.070312 -5.96875 197.53125 C -6.144531 197.53125 -6.6875 197.347656 -7.59375 196.984375 C -8.5 196.617188 -9.039062 196.4375 -9.21875 196.4375 C -9.40625 196.4375 -9.722656 196.347656 -10.171875 196.171875 C -10.628906 195.992188 -11.035156 195.90625 -11.390625 195.90625 C -12.117188 195.539062 -12.570312 195.359375 -12.75 195.359375 L -21.15625 191.28125 C -22.96875 190.019531 -24.734375 188.664062 -26.453125 187.21875 C -28.171875 185.769531 -29.84375 183.867188 -31.46875 181.515625 C -34.363281 176.992188 -36.175781 172.382812 -36.90625 167.6875 C -37.625 162.976562 -37.894531 158.09375 -37.71875 153.03125 C -36.8125 142.71875 -34.273438 132.316406 -30.109375 121.828125 C -25.953125 111.335938 -20.707031 101.160156 -14.375 91.296875 C -8.050781 81.441406 -1.132812 72.265625 6.375 63.765625 C 13.882812 55.265625 21.4375 47.9375 29.03125 41.78125 C 34.28125 37.082031 39.617188 32.515625 45.046875 28.078125 C 50.472656 23.648438 55.71875 19.445312 60.78125 15.46875 L 60.5 15.46875 L 75.421875 4.34375 L 73.53125 -5.421875 C 72.800781 -9.222656 72.03125 -12.4375 71.21875 -15.0625 C 70.40625 -17.6875 69.546875 -19.898438 68.640625 -21.703125 L 68.640625 -22.25 L 67.015625 -24.96875 C 65.210938 -23.332031 63.453125 -21.566406 61.734375 -19.671875 C 60.015625 -17.773438 58.335938 -16.101562 56.703125 -14.65625 C 53.992188 -12.300781 51.007812 -9.628906 47.75 -6.640625 C 44.5 -3.660156 41.425781 -1.085938 38.53125 1.078125 L 38.53125 0.8125 C 36.71875 2.082031 35.132812 3.125 33.78125 3.9375 C 32.425781 4.75 31.023438 5.609375 29.578125 6.515625 L 27.953125 7.328125 C 26.679688 7.867188 25.503906 8.316406 24.421875 8.671875 C 23.335938 9.035156 22.34375 9.398438 21.4375 9.765625 L 21.703125 9.5 C 20.984375 9.863281 19.804688 10.046875 18.171875 10.046875 L 16.546875 10.046875 C 16.367188 10.046875 16.144531 10 15.875 9.90625 C 15.601562 9.8125 15.101562 9.765625 14.375 9.765625 C 14.195312 9.765625 13.972656 9.71875 13.703125 9.625 C 13.429688 9.539062 13.113281 9.5 12.75 9.5 C 9.851562 8.59375 7.234375 7.054688 4.890625 4.890625 C 3.253906 3.796875 1.710938 1.941406 0.265625 -0.671875 C -1.179688 -3.296875 -2.3125 -6.097656 -3.125 -9.078125 C -3.9375 -12.066406 -4.429688 -14.46875 -4.609375 -16.28125 C -4.609375 -17.726562 -4.609375 -19.039062 -4.609375 -20.21875 C -4.609375 -21.394531 -4.519531 -22.703125 -4.34375 -24.140625 C -4.34375 -24.140625 -4.296875 -24.1875 -4.203125 -24.28125 C -4.109375 -24.375 -4.0625 -24.507812 -4.0625 -24.6875 L -4.0625 -26.3125 L -3.53125 -27.953125 L -3.25 -30.65625 C -2.707031 -32.644531 -2.03125 -34.816406 -1.21875 -37.171875 C -0.40625 -39.523438 0.632812 -41.695312 1.90625 -43.6875 C 3.894531 -47.84375 6.425781 -51.640625 9.5 -55.078125 C 12.570312 -58.515625 15.828125 -61.59375 19.265625 -64.3125 L 19.265625 -64.578125 C 20.710938 -65.835938 22.335938 -67.054688 24.140625 -68.234375 C 25.953125 -69.410156 27.945312 -70.632812 30.125 -71.90625 C 31.925781 -72.8125 33.957031 -73.757812 36.21875 -74.75 C 38.476562 -75.75 40.332031 -76.609375 41.78125 -77.328125 C 45.945312 -78.953125 50.0625 -80.035156 54.125 -80.578125 C 58.195312 -81.128906 62.492188 -81.40625 67.015625 -81.40625 C 67.378906 -81.21875 67.648438 -81.125 67.828125 -81.125 L 68.921875 -80.578125 C 69.460938 -80.578125 69.914062 -80.398438 70.28125 -80.046875 L 70 -80.3125 C 70.90625 -80.3125 71.628906 -80.039062 72.171875 -79.5 C 72.710938 -78.957031 73.078125 -78.6875 73.265625 -78.6875 L 75.703125 -77.328125 L 78.953125 -73.796875 C 79.859375 -72.347656 80.398438 -70.722656 80.578125 -68.921875 C 80.578125 -68.191406 80.441406 -67.507812 80.171875 -66.875 C 79.898438 -66.25 79.3125 -65.753906 78.40625 -65.390625 C 77.6875 -65.390625 76.921875 -65.613281 76.109375 -66.0625 C 75.296875 -66.519531 74.707031 -67.378906 74.34375 -68.640625 C 74.519531 -69.367188 74.429688 -70.09375 74.078125 -70.8125 L 74.078125 -71.09375 L 73.265625 -72.171875 L 69.734375 -74.078125 C 69.546875 -74.078125 69.179688 -74.117188 68.640625 -74.203125 C 68.097656 -74.296875 67.738281 -74.429688 67.5625 -74.609375 L 66.75 -74.609375 C 59.695312 -74.066406 53.003906 -71.628906 46.671875 -67.296875 C 45.035156 -66.390625 43.539062 -65.347656 42.1875 -64.171875 C 40.832031 -62.992188 39.429688 -61.863281 37.984375 -60.78125 C 36.722656 -60.050781 35.679688 -59.097656 34.859375 -57.921875 C 34.046875 -56.753906 33.1875 -55.625 32.28125 -54.53125 L 30.9375 -53.1875 L 24.6875 -43.953125 C 24.144531 -43.410156 23.875 -43.140625 23.875 -43.140625 L 20.34375 -35 C 19.257812 -32.644531 18.445312 -29.660156 17.90625 -26.046875 L 17.640625 -25.5 L 17.640625 -24.140625 L 17.359375 -22.796875 L 17.359375 -21.4375 C 17.179688 -20.53125 17.09375 -19.625 17.09375 -18.71875 C 17.09375 -17.8125 17.09375 -16.726562 17.09375 -15.46875 C 16.914062 -14.019531 16.78125 -12.570312 16.6875 -11.125 C 16.59375 -9.675781 16.546875 -8.316406 16.546875 -7.046875 C 16.546875 -4.335938 17.085938 -2.171875 18.171875 -0.546875 L 20.078125 1.078125 L 19 0.546875 C 19.351562 0.898438 19.625 1.078125 19.8125 1.078125 L 21.4375 2.71875 C 21.4375 2.71875 21.390625 2.488281 21.296875 2.03125 C 21.203125 1.582031 21.335938 1.445312 21.703125 1.625 C 21.890625 1.625 22.070312 1.625 22.25 1.625 C 22.425781 1.625 22.609375 1.625 22.796875 1.625 C 23.878906 1.625 24.78125 1.535156 25.5 1.359375 C 26.40625 0.992188 27.21875 0.675781 27.9375 0.40625 C 28.664062 0.132812 29.300781 -0.179688 29.84375 -0.546875 L 35.265625 -3.796875 C 41.597656 -7.773438 47.570312 -12.566406 53.1875 -18.171875 L 61.3125 -26.859375 L 65.125 -31.46875 C 64.757812 -36.175781 66.65625 -39.523438 70.8125 -41.515625 C 72.257812 -42.234375 73.890625 -42.59375 75.703125 -42.59375 C 79.679688 -42.59375 82.753906 -40.96875 84.921875 -37.71875 L 86.015625 -35.546875 L 86.015625 -35.8125 C 88.546875 -32.5625 90.578125 -28.671875 92.109375 -24.140625 C 93.648438 -19.617188 95.054688 -15.367188 96.328125 -11.390625 C 100.484375 -14.109375 104.367188 -16.734375 107.984375 -19.265625 C 111.609375 -21.796875 115.046875 -23.96875 118.296875 -25.78125 C 121.734375 -27.945312 124.851562 -29.84375 127.65625 -31.46875 C 130.457031 -33.101562 132.765625 -34.367188 134.578125 -35.265625 L 140.546875 -38.53125 C 140.910156 -38.707031 141.363281 -38.796875 141.90625 -38.796875 C 142.988281 -38.796875 143.800781 -38.253906 144.34375 -37.171875 Z M 74.34375 65.125 C 75.425781 59.695312 76.191406 53.679688 76.640625 47.078125 C 77.097656 40.472656 77.328125 34.457031 77.328125 29.03125 C 77.328125 27.582031 77.28125 26.179688 77.1875 24.828125 C 77.101562 23.472656 77.0625 22.160156 77.0625 20.890625 C 76.875 18.535156 76.78125 16.585938 76.78125 15.046875 C 76.78125 13.515625 76.601562 11.847656 76.25 10.046875 L 66.75 17.09375 C 61.132812 21.4375 55.390625 26.003906 49.515625 30.796875 C 43.640625 35.585938 37.71875 40.609375 31.75 45.859375 L 29.296875 48.296875 C 26.953125 50.460938 24.554688 52.675781 22.109375 54.9375 C 19.671875 57.195312 17.1875 59.597656 14.65625 62.140625 C 7.414062 69.734375 0.40625 78.6875 -6.375 89 C -13.15625 99.3125 -18.851562 110.070312 -23.46875 121.28125 C -28.082031 132.5 -30.929688 143.265625 -32.015625 153.578125 L -32.015625 153.296875 C -32.378906 157.816406 -32.019531 162.25 -30.9375 166.59375 C -30.570312 168.40625 -29.984375 170.304688 -29.171875 172.296875 C -28.359375 174.285156 -27.316406 176.09375 -26.046875 177.71875 C -24.234375 179.882812 -21.425781 182.097656 -17.625 184.359375 C -13.832031 186.628906 -10.488281 187.765625 -7.59375 187.765625 C -7.226562 187.941406 -6.773438 188.03125 -6.234375 188.03125 L -4.890625 188.03125 C 1.441406 188.03125 7.050781 186.21875 11.9375 182.59375 C 16.820312 178.976562 21.253906 174.910156 25.234375 170.390625 L 25.234375 170.671875 L 29.296875 166.046875 L 33.109375 160.890625 L 32.828125 160.890625 C 52.179688 135.566406 65.382812 107.625 72.4375 77.0625 L 73.265625 71.90625 C 73.265625 71.539062 73.265625 70.992188 73.265625 70.265625 C 73.265625 69.546875 73.351562 69.097656 73.53125 68.921875 C 73.53125 68.191406 73.710938 67.285156 74.078125 66.203125 C 74.078125 66.023438 74.117188 65.84375 74.203125 65.65625 C 74.296875 65.476562 74.34375 65.300781 74.34375 65.125 Z M 74.34375 65.125 "/></g></g></g><g fill="#000000" fill-opacity="1"><g transform="translate(567.035135, 341.253387)"><g><path d="M 21.0625 -74.109375 C 22.40625 -74.109375 23.257812 -73.867188 23.625 -73.390625 C 24 -72.921875 24.1875 -72.414062 24.1875 -71.875 C 24.1875 -71.0625 23.929688 -70.503906 23.421875 -70.203125 C 22.921875 -69.898438 22.367188 -69.613281 21.765625 -69.34375 C 20.890625 -69.007812 20.078125 -68.65625 19.328125 -68.28125 C 18.585938 -67.90625 18.21875 -66.875 18.21875 -65.1875 L 18.21875 -42.921875 L 62.0625 -42.921875 L 62.0625 -67.125 C 62.0625 -67.789062 61.738281 -68.222656 61.09375 -68.421875 C 60.457031 -68.628906 59.75 -68.832031 58.96875 -69.03125 C 58.195312 -69.238281 57.488281 -69.523438 56.84375 -69.890625 C 56.195312 -70.265625 55.875 -70.925781 55.875 -71.875 C 55.875 -72.414062 56.0625 -72.921875 56.4375 -73.390625 C 56.8125 -73.867188 57.671875 -74.109375 59.015625 -74.109375 L 74.203125 -74.109375 C 75.554688 -74.109375 76.414062 -73.867188 76.78125 -73.390625 C 77.15625 -72.921875 77.34375 -72.414062 77.34375 -71.875 C 77.34375 -70.863281 77.019531 -70.207031 76.375 -69.90625 C 75.738281 -69.601562 75.03125 -69.347656 74.25 -69.140625 C 73.476562 -68.941406 72.769531 -68.617188 72.125 -68.171875 C 71.488281 -67.734375 71.171875 -66.84375 71.171875 -65.5 L 71.171875 -8 C 71.171875 -7.125 71.488281 -6.445312 72.125 -5.96875 C 72.769531 -5.5 73.476562 -5.113281 74.25 -4.8125 C 75.03125 -4.507812 75.738281 -4.1875 76.375 -3.84375 C 77.019531 -3.507812 77.34375 -3.003906 77.34375 -2.328125 C 77.34375 -0.773438 76.296875 0 74.203125 0 L 59.125 0 C 57.84375 0 56.976562 -0.203125 56.53125 -0.609375 C 56.09375 -1.015625 55.875 -1.585938 55.875 -2.328125 C 55.875 -3.066406 56.109375 -3.601562 56.578125 -3.9375 C 57.054688 -4.28125 57.664062 -4.554688 58.40625 -4.765625 C 59.019531 -4.960938 59.546875 -5.128906 59.984375 -5.265625 C 60.421875 -5.398438 60.789062 -5.632812 61.09375 -5.96875 C 61.394531 -6.3125 61.628906 -6.785156 61.796875 -7.390625 C 61.972656 -7.992188 62.0625 -8.800781 62.0625 -9.8125 L 62.0625 -37.65625 L 18.21875 -37.65625 L 18.21875 -7.09375 C 18.21875 -6.476562 18.519531 -6.035156 19.125 -5.765625 C 19.738281 -5.492188 20.429688 -5.238281 21.203125 -5 C 21.984375 -4.769531 22.675781 -4.46875 23.28125 -4.09375 C 23.882812 -3.726562 24.1875 -3.140625 24.1875 -2.328125 C 24.1875 -1.585938 23.96875 -1.015625 23.53125 -0.609375 C 23.09375 -0.203125 22.234375 0 20.953125 0 L 6.171875 0 C 4.828125 0 3.953125 -0.25 3.546875 -0.75 C 3.140625 -1.257812 2.9375 -1.785156 2.9375 -2.328125 C 2.9375 -3.273438 3.253906 -3.882812 3.890625 -4.15625 C 4.535156 -4.425781 5.242188 -4.660156 6.015625 -4.859375 C 6.796875 -5.054688 7.503906 -5.390625 8.140625 -5.859375 C 8.785156 -6.335938 9.109375 -7.253906 9.109375 -8.609375 L 9.109375 -67.015625 C 9.109375 -67.691406 8.785156 -68.164062 8.140625 -68.4375 C 7.503906 -68.707031 6.796875 -68.957031 6.015625 -69.1875 C 5.242188 -69.425781 4.535156 -69.710938 3.890625 -70.046875 C 3.253906 -70.390625 2.9375 -71 2.9375 -71.875 C 2.9375 -72.476562 3.140625 -73 3.546875 -73.4375 C 3.953125 -73.882812 4.828125 -74.109375 6.171875 -74.109375 Z M 21.0625 -74.109375 "/></g></g></g><g fill="#000000" fill-opacity="1"><g transform="translate(648.016385, 341.253387)"><g><path d="M 39.890625 -70.25 C 35.703125 -70.25 32.003906 -69.285156 28.796875 -67.359375 C 25.597656 -65.441406 22.914062 -62.914062 20.75 -59.78125 C 18.59375 -56.644531 16.941406 -53.066406 15.796875 -49.046875 C 14.648438 -45.035156 14.078125 -40.9375 14.078125 -36.75 C 14.078125 -32.09375 14.734375 -27.722656 16.046875 -23.640625 C 17.359375 -19.554688 19.160156 -16.007812 21.453125 -13 C 23.753906 -10 26.421875 -7.617188 29.453125 -5.859375 C 32.492188 -4.109375 35.734375 -3.234375 39.171875 -3.234375 L 41.5 -3.34375 C 40.425781 -5.96875 39.734375 -8.191406 39.421875 -10.015625 C 39.117188 -11.835938 38.96875 -13.320312 38.96875 -14.46875 C 38.96875 -15.21875 39.085938 -16.0625 39.328125 -17 C 39.566406 -17.945312 40.222656 -18.421875 41.296875 -18.421875 C 42.179688 -18.421875 42.753906 -18.050781 43.015625 -17.3125 C 43.285156 -16.570312 43.503906 -15.539062 43.671875 -14.21875 C 43.847656 -12.90625 44.140625 -11.390625 44.546875 -9.671875 C 44.953125 -7.953125 45.726562 -6.113281 46.875 -4.15625 C 50.3125 -5.300781 53.257812 -7.003906 55.71875 -9.265625 C 58.1875 -11.523438 60.210938 -14.125 61.796875 -17.0625 C 63.390625 -20 64.554688 -23.117188 65.296875 -26.421875 C 66.035156 -29.722656 66.40625 -32.992188 66.40625 -36.234375 C 66.40625 -41.097656 65.796875 -45.601562 64.578125 -49.75 C 63.367188 -53.90625 61.613281 -57.5 59.3125 -60.53125 C 57.019531 -63.570312 54.238281 -65.953125 50.96875 -67.671875 C 47.695312 -69.390625 44.003906 -70.25 39.890625 -70.25 Z M 3.75 -36.640625 C 3.75 -41.972656 4.59375 -47 6.28125 -51.71875 C 7.96875 -56.445312 10.378906 -60.582031 13.515625 -64.125 C 16.648438 -67.675781 20.441406 -70.476562 24.890625 -72.53125 C 29.347656 -74.59375 34.378906 -75.625 39.984375 -75.625 C 44.910156 -75.625 49.597656 -74.710938 54.046875 -72.890625 C 58.503906 -71.066406 62.421875 -68.46875 65.796875 -65.09375 C 69.171875 -61.71875 71.835938 -57.648438 73.796875 -52.890625 C 75.753906 -48.140625 76.734375 -42.789062 76.734375 -36.84375 C 76.734375 -32.800781 76.054688 -28.753906 74.703125 -24.703125 C 73.359375 -20.648438 71.488281 -16.921875 69.09375 -13.515625 C 66.695312 -10.109375 63.878906 -7.1875 60.640625 -4.75 C 57.398438 -2.320312 53.890625 -0.738281 50.109375 0 C 52.335938 1.957031 54.800781 3.59375 57.5 4.90625 C 60.195312 6.226562 63.097656 6.890625 66.203125 6.890625 C 67.347656 6.890625 68.507812 6.785156 69.6875 6.578125 C 70.875 6.378906 71.972656 6.28125 72.984375 6.28125 C 73.929688 6.28125 74.691406 6.582031 75.265625 7.1875 C 75.835938 7.789062 76.125 8.632812 76.125 9.71875 C 76.125 10.59375 75.851562 11.316406 75.3125 11.890625 C 74.78125 12.460938 74.140625 12.914062 73.390625 13.25 C 72.648438 13.59375 71.84375 13.832031 70.96875 13.96875 C 70.09375 14.101562 69.316406 14.171875 68.640625 14.171875 C 64.117188 14.171875 59.726562 12.957031 55.46875 10.53125 C 51.21875 8.101562 47.539062 5 44.4375 1.21875 C 43.894531 1.21875 43.171875 1.265625 42.265625 1.359375 C 41.359375 1.460938 40.328125 1.515625 39.171875 1.515625 C 34.722656 1.515625 30.390625 0.707031 26.171875 -0.90625 C 21.953125 -2.53125 18.171875 -4.941406 14.828125 -8.140625 C 11.484375 -11.347656 8.800781 -15.332031 6.78125 -20.09375 C 4.757812 -24.851562 3.75 -30.367188 3.75 -36.640625 Z M 3.75 -36.640625 "/></g></g></g><path stroke-linecap="round" transform="matrix(0.75, 0, 0, 0.75, 80.999999, 587.823038)" fill="none" stroke-linejoin="miter" d="M 1.500001 1.501574 L 640.583366 1.501574 " stroke="#000000" stroke-width="3" stroke-opacity="1" stroke-miterlimit="4"/></svg>